==================================
Match of the Day 2: Sept 26th 2010
==================================
Catch up with all the latest English Premier League football from last weekend - Aired on BBC1 (UK) on the 26th September 2010, hosted by Colin Murray.

Extended highlights of Bolton vs Man Utd, Newcastle vs Stoke and Wolves vs Aston Villa.

Plus all the weekend's action with all the goals from Saturday's Barclays Premier League. ;)
==================================
==================================
Video Details; (exported from MediaInfo)
Format                           : AVI
Format/Info                      : Audio Video Interleave
File size                        : 440 MiB
Duration                         : 1h 10mn
Overall bit rate                 : 878 Kbps
Writing application              : Lavf52.13.0

Video
ID                               : 0
Format                           : MPEG-4 Visual
Codec ID                         : MP42
Codec ID/Info                    : Microsoft MPEG-4 v2 (pre-standard)
Codec ID/Hint                    : Microsoft
Duration                         : 1h 10mn
Bit rate                         : 768 Kbps
Width                            : 640 pixels
Height                           : 368 pixels
Display aspect ratio             : 16:9
Frame rate                       : 29.970 fps
Bits/(Pixel*Frame)               : 0.109
Stream size                      : 385 MiB (88%)

Audio
ID                               : 1
Format                           : MPEG Audio
Format version                   : Version 1
Format profile                   : Layer 3
Mode                             : Joint stereo
Mode extension                   : MS Stereo
Codec ID                         : 55
Codec ID/Hint                    : MP3
Duration                         : 1h 10mn
Bit rate mode                    : Constant
Bit rate                         : 96.0 Kbps
Channel(s)                       : 2 channels
Sampling rate                    : 44.1 KHz
Stream size                      : 48.1 MiB (11%)
Alignment                        : Aligned on interleaves
Interleave, duration             : 26 ms (0.78 video frame)
==================================
==================================
==================================
====base==========================
============Sniper================
==================================
==================================
==================================

Comment, seed, enjoy!